<svg xmlns="http://www.w3.org/2000/svg" viewBox="0 0 100 100"><defs><style>.iconDetail{fill:#b00f00;}.grayA6{fill:#a6a6a6;}.iconCommon{fill:#fff;}.iconMain{fill:#d10;}.gray89{fill:#898989;}.grayD1{fill:#d1d1d1;}.grayBF{fill:#bfbfbf;}</style></defs><path class="iconDetail" d="M38,73H33.5A5.50654,5.50654,0,0,1,28,67.5v-33A5.50654,5.50654,0,0,1,33.5,29H38v3H33.5A2.50263,2.50263,0,0,0,31,34.5v33A2.50263,2.50263,0,0,0,33.5,70H38Zm34-5.5v-33A5.50654,5.50654,0,0,0,66.5,29H63v3h3.5A2.50263,2.50263,0,0,1,69,34.5v33A2.50263,2.50263,0,0,1,66.5,70H63v3h3.5A5.50654,5.50654,0,0,0,72,67.5ZM39,37H37.5a.5.5,0,0,0-.5.5v1a.5.5,0,0,0,.5.5H39Zm0,4H37.5a.5.5,0,0,0-.5.5v1a.5.5,0,0,0,.5.5H39Zm0,4H37.5a.5.5,0,0,0-.5.5v1a.5.5,0,0,0,.5.5H39Zm0,4H37.5a.5.5,0,0,0-.5.5v1a.5.5,0,0,0,.5.5H39Zm0,4H37.5a.5.5,0,0,0-.5.5v1a.5.5,0,0,0,.5.5H39Zm0,4H37.5a.5.5,0,0,0-.5.5v1a.5.5,0,0,0,.5.5H39Zm0,4H37.5a.5.5,0,0,0-.5.5v1a.5.5,0,0,0,.5.5H39Z"/><path class="grayA6" d="M63,35.47205V64.528A1.47205,1.47205,0,0,1,61.528,66H39.47205A1.47205,1.47205,0,0,1,38,64.528V35.47205A1.47205,1.47205,0,0,1,39.47205,34H61.528A1.47205,1.47205,0,0,1,63,35.47205ZM52.6626,31,55.16449,8.9834a3.00582,3.00582,0,1,0-.994-.1142L51.65558,31Zm18.91357-5.051L88.4425,6.55273a3.05145,3.05145,0,1,0-.75158-.65893L70.75348,25.37189A9.04515,9.04515,0,0,1,71.57617,25.949ZM4,60a3,3,0,1,0,3,3,2.9461,2.9461,0,0,0-.03223-.3194L25,57.58453V56.5459L6.70172,61.71716A2.99233,2.99233,0,0,0,4,60Zm92-2a3.00026,3.00026,0,0,0-2.76068,1.82574L74,55.225v1.02819l19.02,4.54828c-.00446.06684-.02.1305-.02.19849a3,3,0,1,0,3-3ZM83,85a2.97309,2.97309,0,0,0-1.55536.44617l-9.885-11.38275a9.02872,9.02872,0,0,1-.82471.576l9.957,11.46564A2.988,2.988,0,1,0,83,85ZM7,33a3.0351,3.0351,0,1,0-.41071,1.49L25,41.294V40.22772L6.944,33.55487A3.0004,3.0004,0,0,0,7,33Z"/><rect class="iconCommon" x="39" y="35" width="23" height="28" rx="0.90098"/><path class="iconMain" d="M56.53855,48.93811,59,46.17647l-3.61428-.788.36827-3.68112-3.38736,1.487L50.49991,40l-1.86543,3.194-3.38682-1.48776.36744,3.68113-3.6147.7872,2.461,2.76222L42,51.69827l3.61429.78816-.36814,3.68086,3.38721-1.48686,1.86672,3.19431,1.86544-3.19385,3.387,1.48764L55.385,52.48742l3.61461-.7872Zm.65043,1.78361-1.64666-.56324L54.41938,48.699l1.446.53722ZM51.87589,54.1356l-1.01822,1.74949V54.07293l1.05927-1.54824ZM49.48075,45.106,47.7336,44.4847l-1.011-1.365,1.83519.80616Zm2.96246-1.17982,1.83467-.80538-1.01137,1.36387-1.74648.621Zm2.22315,1.61153-.88675,1.25756.05215-1.89611,1.03861-1.4006ZM50.5,53.34442l-1.36076-1.98551L50.5,49.51247l1.36075,1.84644Zm-2.55739-5.653-.06811-2.41078,2.26783.80708v2.3461Zm2.91506-1.6037,2.266-.80708-.0645,2.41078-2.20152.7424Zm-4.52324-.55094L46.131,43.49854l1.03725,1.40051.05213,1.89529Zm3.59849,3.56368-1.36005,1.84547-2.31225-.68161,1.46719-1.90687ZM49.08437,52.524l1.058,1.54895v1.81276l-1.02114-1.75043Zm1.9827-3.42351,2.20512-.743,1.46718,1.90687-2.31225.68161Zm6.61141-2.49475-1.7117,1.92046-2.02069-.75072,1.21227-1.7192Zm-7.17839-5.21624L51.799,43.6121l-1.29884,1.65952-1.298-1.65976Zm-7.17821,5.21461,2.52037-.54888,1.21173,1.72-2.02066.74975Zm1.81261,2.631,1.44671-.53679L45.45773,50.1584,43.81,50.721Zm-1.17074,2.17406,1.71505-.58555,1.83122.53982-1.53257.48486Zm2.35609,1.066,2.0503-.64865.05227,2.18113L46.063,55.04324ZM52.57652,54.008l.05315-2.18147,2.04979.64932.25638,2.56844Zm2.44549-2.1589-1.53275-.48553,1.83181-.54,1.7155.58679ZM39,38H37V36.5a.5.5,0,0,1,.5-.5H39Zm0,4H37V40.5a.5.5,0,0,1,.5-.5H39Zm0,4H37V44.5a.5.5,0,0,1,.5-.5H39Zm0,4H37V48.5a.5.5,0,0,1,.5-.5H39Zm0,4H37V52.5a.5.5,0,0,1,.5-.5H39Zm0,4H37V56.5a.5.5,0,0,1,.5-.5H39Zm0,4H37V60.5a.5.5,0,0,1,.5-.5H39Zm-1,9H33.5A5.50654,5.50654,0,0,1,28,65.5v-33A5.50654,5.50654,0,0,1,33.5,27H38v3H33.5A2.50263,2.50263,0,0,0,31,32.5v33A2.50263,2.50263,0,0,0,33.5,68H38Zm34-5.5v-33A5.50654,5.50654,0,0,0,66.5,27H63v3h3.5A2.50263,2.50263,0,0,1,69,32.5v33A2.50263,2.50263,0,0,1,66.5,68H63v3h3.5A5.50654,5.50654,0,0,0,72,65.5Z"/><path class="gray89" d="M89,22a2.98979,2.98979,0,0,1-5.02051,2.20453L74.8363,31.31586a8.91553,8.91553,0,0,0-.2669-1.05841L83.369,23.41327A2.9664,2.9664,0,0,1,83,22a3,3,0,0,1,6,0Zm7,63a2.97427,2.97427,0,0,0-1.95215.73907L74.59564,69.6698a8.92007,8.92007,0,0,1-.37829.984L93.411,86.50946A2.96914,2.96914,0,0,0,93,88a3,3,0,1,0,3-3ZM25,35.23547l-9.18982-5.21582a3.02865,3.02865,0,1,0-.49664.86872L25,36.38611ZM40.17426,93.23932,45.97064,69H44.94238L39.19849,93.02C39.13165,93.01556,39.068,93,39,93a2.99987,2.99987,0,1,0,1.17426.23932Z"/><path class="grayD1" d="M43,12a3,3,0,1,1,3.80536,2.87671L48.5025,31H47.49744L45.81122,14.981A2.99151,2.99151,0,0,1,43,12ZM25,45.648,13.99548,43.955a3.034,3.034,0,1,0-.16113.98693L25,46.65967ZM56,77c-.03027,0-.05835.008-.08838.00891L54.30988,69H53.29016l1.641,8.20508A2.982,2.982,0,1,0,56,77Z"/><path class="grayBF" d="M32.36884,75.84442l-4.25507,6.028a3.11946,3.11946,0,1,1-.822-.56928l4.03058-5.71A8.93777,8.93777,0,0,0,32.36884,75.84442ZM30.73853,24.621,16.17963,6.05066a3.10134,3.10134,0,1,0-.80121.59918l14.4223,18.396A8.94871,8.94871,0,0,1,30.73853,24.621ZM61.57471,64H39.42529A1.41023,1.41023,0,0,1,39,63.92822V64.087a.913.913,0,0,0,.9129.913H61.0871A.913.913,0,0,0,62,64.087v-.15882A1.41023,1.41023,0,0,1,61.57471,64Z"/></svg>