<svg xmlns="http://www.w3.org/2000/svg" viewBox="0 0 20 20"><defs><style>.iconMain{fill:#a6a6a6;}.iconAccent{fill:#d10;}.iconBackground{fill:#fff;}</style></defs><g id="notebook"><path id="back" class="iconMain" d="M18,2.5A1.5,1.5,0,0,0,16.5,1H4.5A1.5,1.5,0,0,0,3,2.5v14A1.5,1.5,0,0,0,4.5,18h12A1.5,1.5,0,0,0,18,16.5Z"/><path id="binding" class="iconAccent" d="M5,8V9H2V8ZM2,10v1H5V10ZM2,6V7H5V6Zm0,6v1H5V12Zm0,2v1H5V14ZM5,2H2V3H5V2ZM5,16H2v1H5V16ZM2,4V5H5V4Z"/><rect id="page" class="iconBackground" x="4" y="2" width="13" height="15" rx="0.5" ry="0.5"/><path id="spikey" class="iconAccent" d="M14.38815,9.50048l1.5927-1.78695-2.33866-.5099.2383-2.38189-2.19182.96215L10.48079,3.717l-1.207,2.06667L7.08227,4.821,7.32,7.20291,4.9811,7.71228,6.57354,9.49959,4.98085,11.28647l2.33866.51L7.0813,14.17818,9.273,13.2161,10.4809,15.283,11.688,13.2164l2.19155.96259-.23776-2.3819,2.33886-.50937Zm.42086,1.1541-1.06549-.36445-.7266-.94435.93566.34761Zm-3.43788,2.209-.65885,1.132V12.823l.68541-1.0018ZM9.82133,7.02087l-1.13051-.402-.65416-.88325,1.18748.52163Zm1.91689-.76341,1.18713-.52113-.65441.8825-1.13007.40186Zm1.43851,1.04276-.57378.81371L12.63669,6.887l.672-.90628Zm-2.69589,5.0514-.88049-1.28474.88049-1.19476.88049,1.19476ZM8.82607,8.69381,8.782,7.13389l1.46741.52222V9.17418Zm1.88621-1.0377,1.46625-.52222-.04174,1.55992-1.42451.48037Zm-2.9268-.35648L7.65383,5.98076,8.325,6.887l.03372,1.22637Zm2.32843,2.30591-.88,1.19413-1.49616-.44105.94935-1.23385Zm-.54906,2.21521.68456,1.00226v1.173l-.66074-1.13263Zm1.28292-2.21521,1.42684-.48077.94936,1.23385-1.49617.44105Zm4.278-1.61426L14.01817,9.23394l-1.3075-.48577.78441-1.11242ZM10.4809,4.61608l.84044,1.43816L10.48092,7.128,9.641,6.05408ZM5.83618,7.99023,7.467,7.63507l.78406,1.113-1.30749.48513ZM7.00905,9.69262l.9361-.34734-.72695.9448-1.06615.364Zm-.75754,1.40674,1.10974-.37888,1.1849.34929-.99166.31373Zm1.52453.68975,1.32666-.41972.03382,1.41132-1.52668.67015Zm4.04843.9919.0344-1.41154,1.32633.42015.1659,1.66193Zm1.58238-1.39694-.99178-.31416,1.18529-.34941,1.11.37969Z"/></g></svg>