<svg xmlns="http://www.w3.org/2000/svg" viewBox="0 0 34 34"><defs><style>.iconMain{fill:#a6a6a6;}.iconAccent{fill:#d10;}.iconBackground{fill:#fff;}</style></defs><rect class="iconMain" x="8" y="6" width="19" height="22" rx="1"/><path class="iconAccent" d="M9.25,8.5H7.75A.75.75,0,0,1,7,7.75H7A.75.75,0,0,1,7.75,7h1.5a.75.75,0,0,1,.75.75h0A.75.75,0,0,1,9.25,8.5ZM10,10.75h0A.75.75,0,0,0,9.25,10H7.75a.75.75,0,0,0-.75.75H7a.75.75,0,0,0,.75.75h1.5A.75.75,0,0,0,10,10.75Zm0,3h0A.75.75,0,0,0,9.25,13H7.75a.75.75,0,0,0-.75.75H7a.75.75,0,0,0,.75.75h1.5A.75.75,0,0,0,10,13.75Zm0,3h0A.75.75,0,0,0,9.25,16H7.75a.75.75,0,0,0-.75.75H7a.75.75,0,0,0,.75.75h1.5A.75.75,0,0,0,10,16.75Zm0,3h0A.75.75,0,0,0,9.25,19H7.75a.75.75,0,0,0-.75.75H7a.75.75,0,0,0,.75.75h1.5A.75.75,0,0,0,10,19.75Zm0,3h0A.75.75,0,0,0,9.25,22H7.75a.75.75,0,0,0-.75.75H7a.75.75,0,0,0,.75.75h1.5A.75.75,0,0,0,10,22.75Zm0,3h0A.75.75,0,0,0,9.25,25H7.75a.75.75,0,0,0-.75.75H7a.75.75,0,0,0,.75.75h1.5A.75.75,0,0,0,10,25.75Z"/><rect class="iconBackground" x="9" y="7" width="17" height="20" rx="0.5"/><path class="iconAccent" d="M22.29532,17.00059,24.25,14.80752l-2.87017-.62579.29246-2.92324-2.69,1.18083L17.49992,9.90268l-1.48136,2.53637L13.329,11.25759l.2918,2.92325-2.87051.62513,1.95436,2.19353L10.75,19.19248l2.87017.62589-.29234,2.923,2.68984-1.18075,1.48239,2.53666L18.98144,21.561l2.68964,1.18136-.2918-2.92323L24.2497,19.194Zm.51652,1.4164-1.30765-.44729-.89174-1.159,1.14832.42662Zm-4.21922,2.711-.80859,1.3893V21.07824l.84119-1.22948Zm-1.902-7.17058-1.38745-.49337-.80283-1.084,1.45736.64018Zm2.35254-.93691,1.45694-.63956L19.69693,13.464l-1.3869.49319Zm1.76544,1.27975-.70418.99865.04141-1.50574.82478-1.11224ZM17.5,20.49972,16.41939,18.923,17.5,17.4567,18.5806,18.923Zm-2.03087-4.48914-.05408-1.91445,1.80092.64092v1.86308Zm2.3149-1.27353,1.79949-.64092-.05123,1.91445-1.74826.58955Zm-3.592-.43751-.16157-1.61861.8237,1.11217.0414,1.50509Zm2.85762,2.83-1.08,1.46553-1.83621-.54129,1.16512-1.51427Zm-.67384,2.71868.84014,1.23v1.43955l-.81091-1.39005Zm1.57449-2.71868,1.75112-.59,1.16512,1.51427-1.8362.54129Zm5.25024-1.98113-1.35929,1.52508L20.2366,16.0773l.96269-1.36524Zm-5.70049-4.1423,1.03145,1.765L17.50009,14.089l-1.03078-1.318Zm-5.70034,4.141,2.00147-.43588.96225,1.36589-1.60464.59539Zm1.43943,2.08928,1.14885-.42627-.89217,1.15953-1.30845.44673Zm-.92971,1.72647,1.362-.465,1.4542.42868-1.217.385Zm1.871.8465,1.62818-.51511.04151,1.73208-1.87366.82245ZM19.149,21.02669l.04221-1.73234L20.819,19.81l.2036,2.03965Zm1.942-1.71442-1.21718-.38557,1.45467-.42881,1.3623.466Z"/><path class="iconAccent" d="M4.5,2H8V4H4.5a.50034.50034,0,0,0-.5.5v25a.50034.50034,0,0,0,.5.5H8v2H4.5A2.50294,2.50294,0,0,1,2,29.5V4.5A2.50294,2.50294,0,0,1,4.5,2Zm25,0H26V4h3.5a.50034.50034,0,0,1,.5.5v25a.50034.50034,0,0,1-.5.5H26v2h3.5A2.50294,2.50294,0,0,0,32,29.5V4.5A2.50294,2.50294,0,0,0,29.5,2Z"/></svg>