<svg xmlns="http://www.w3.org/2000/svg" viewBox="0 0 100 60"><defs><style>.grayD1{fill:#d1d1d1;}.iconCommon{fill:#fff;}.gray64{fill:#646464;}.gray89{fill:#898989;}.iconAccent{fill:#23b5ff;}.iconMain{fill:#d10;}.grayBF{fill:#bfbfbf;}</style></defs><path class="grayD1" d="M99,56H56V4H99Z"/><rect class="iconCommon" x="57" y="5" width="41" height="50"/><path class="gray64" d="M75.68359,30.04639c.65332-2.04053,1.32813-4.15039,2.67774-4.75586,3.73633-1.67383,9.49512,9.42968,9.55273,9.542l.17188-.08789A45.35933,45.35933,0,0,0,84.68359,29.29c-2.60156-3.50733-4.75879-4.91553-6.40039-4.17529-1.42871.64062-2.11718,2.792-2.7832,4.873a14.25218,14.25218,0,0,1-1.61353,3.80695c-.07086-.03607-.13977-.06622-.21362-.11115L73.583,33.832c.06659.04059.12878.06622.19336.1001-.04126.05194-.08124.10651-.12409.15485a3.77413,3.77413,0,0,1-1.09564-.5738l-.10352.14453a4.02612,4.02612,0,0,0,1.0763.56849c-.0332.03332-.07123.056-.10541.08715a4.1298,4.1298,0,0,1-1.98653-.97155l-.11131.14355a4.52761,4.52761,0,0,0,1.92291.9726c-.0213.01623-.04089.03637-.06262.05182a4.54041,4.54041,0,0,1-2.87-1.34034l-.11719.14356a5.44864,5.44864,0,0,0,2.61041,1.366c-.94641.13165-2.12756-.41626-3.61334-1.682l-.12305.14355a6.23077,6.23077,0,0,0,3.26,1.725c-1.08954.179-2.4823-.48755-4.258-2.04138l-.127.14453c1.62891,1.42578,2.96,2.12744,4.04492,2.12744a2.27428,2.27428,0,0,0,.61231-.08154,2.142,2.142,0,0,0,.4154-.18353c.02735-.00641.05768-.00379.0846-.0113a1.99117,1.99117,0,0,0,.37927-.16717c.03992-.00842.08161-.0108.12073-.02179a1.84344,1.84344,0,0,0,.38428-.16925c.03674-.00794.07769-.00159.11377-.0119a1.68255,1.68255,0,0,0,.332-.147,1.55592,1.55592,0,0,0,.16412-.02142,1.49566,1.49566,0,0,0,.20306-.09143,1.3166,1.3166,0,0,0,.295-.0531c.019-.00617.03534-.01825.054-.02521.95392.05744,1.49426-1.12042,2.02027-2.26385.48535-1.05567.9873-2.14746,1.79492-2.33789.665-.15918,1.541.42334,2.32715,1.55712.89941,1.29541,1.36914,2.8252,1.02441,3.33985l.14258.09472c.43164-.64648-.19727-2.33642-1.02735-3.53173-.83984-1.21143-1.75-1.80127-2.50586-1.626-.88867.21-1.4082,1.33984-1.91015,2.43262-.421.91662-.82843,1.78686-1.4148,2.06408a6.4718,6.4718,0,0,0,1.37769-2.36779c.499-1.18262,1.01465-2.40577,1.88769-2.666.77539-.23242,1.80664.41992,2.82032,1.79346,1.17187,1.58691,1.83886,3.4497,1.56347,3.86133l.14453.09668c.38282-.57227-.52832-2.65332-1.56836-4.06153-.62207-.84375-1.83691-2.2041-3.01074-1.85693-.95117.28418-1.48242,1.54541-1.99707,2.76514a5.45733,5.45733,0,0,1-1.50708,2.43682,7.94369,7.94369,0,0,0,1.43286-2.68634c.52344-1.33838,1.06446-2.72265,2.02149-3.05224,1.20019-.41016,2.58105,1.08154,3.29687,2.00879,1.39942,1.81347,2.34375,4.07031,2.1211,4.40429l.14843.09864c.31543-.47364-.79882-2.88721-2.1289-4.61182-1.28711-1.666-2.52149-2.40527-3.4961-2.06787-1.03418.35644-1.59082,1.7793-2.1289,3.15576a6.449,6.449,0,0,1-1.61389,2.80286l-.00049-.00013a9.11382,9.11382,0,0,0,1.52746-3.03027c.55274-1.50683,1.124-3.06494,2.17383-3.46338,1.127-.42627,2.42481.67871,3.31543,1.68164,1.9043,2.14405,3.27637,5.22168,3.13574,5.48975l.07618.0498.07519.0503c.25586-.38184-1.14258-3.2168-2.69043-5.16114-1.05664-1.32812-2.60351-2.80078-3.97656-2.28027-1.127.42822-1.71289,2.02588-2.28027,3.5708a7.38715,7.38715,0,0,1-1.73786,3.18683A10.15654,10.15654,0,0,0,76.22852,30.584c.585-1.68164,1.18945-3.41992,2.33691-3.8872a2.58526,2.58526,0,0,1,2.543.71191,19.464,19.464,0,0,1,4.93652,7.2334l.085.03467.07715.05127c.209-.313-1.51074-3.57373-3.26465-5.72266-1.7207-2.10791-3.25976-2.96435-4.44726-2.48047-1.22461.499-1.84375,2.27783-2.44141,3.99805a9.28557,9.28557,0,0,1-1.71136,3.45154c-.01276-.00324-.02637-.0091-.03925-.01264A12.0728,12.0728,0,0,0,75.957,30.3125c.61817-1.86035,1.25781-3.78369,2.50586-4.31885a2.35031,2.35031,0,0,1,2.14356.29688c3.042,1.748,6.32031,8.06347,6.36523,8.437l.09277.00537.07813.05273c.14355-.21435-1.85938-3.90771-3.8457-6.293-1.94727-2.33887-3.59961-3.23682-4.90821-2.67286-1.32619.56836-1.97949,2.53321-2.61133,4.43311a11.554,11.554,0,0,1-1.66681,3.647c-.016-.00628-.03076-.00836-.047-.01513A14.60082,14.60082,0,0,0,75.68359,30.04639ZM73.9931,34.04431c-.03015.03143-.06372.055-.09478.08447l-.03028-.00512c.02777-.03333.05573-.06641.08283-.1012C73.9646,34.02856,73.97943,34.03857,73.9931,34.04431Zm7.02936-2.618c.58887.93311.99707,2.27588.501,3.01807l-.13867-.09278c.43457-.65039.07617-1.91894-.50293-2.83642-.5586-.88623-1.25293-1.38233-1.81936-1.30176-.80467.11719-1.34471,1.22754-1.82127,2.20752-.43555.89453-.81055,1.66748-1.35156,1.76367l-.0293-.16406c.457-.08155.833-.85449,1.23145-1.67237.49414-1.01709,1.05566-2.16992,1.94726-2.2998C79.67969,29.957,80.41992,30.47217,81.02246,31.42627Zm-.43652.42139a2.49694,2.49694,0,0,1,.001,2.54l-.13476-.09082a2.33777,2.33777,0,0,0-.00977-2.37256A1.67561,1.67561,0,0,0,79.1582,30.9165h-.00293c-1.19824.0044-1.98828,2.19239-2.07617,3.36426L76.917,34.269c.0918-1.22461.94043-3.51074,2.23828-3.51562h.00293A1.80634,1.80634,0,0,1,80.58594,31.84766Zm-.7334-.06006c.20994.21191.81445,1.02-.20215,2.54345l-.13281-.08886c.6416-.96.72461-1.83545.22168-2.34229a1.06476,1.06476,0,0,0-1.335-.1499c-.63184.41455-.709,1.41162-.208,2.66748l-.14844.05859c-.78711-1.97265.00684-2.687.26953-2.85888A1.22539,1.22539,0,0,1,79.85254,31.7876Z"/><path class="gray89" d="M80.18372,40H68V38H80.18372a2.81339,2.81339,0,0,0,0,2Zm5.63256-2a2.81339,2.81339,0,0,1,0,2H88V38ZM68,43v2h2.18372a2.81339,2.81339,0,0,1,0-2Zm8,1a2.97194,2.97194,0,0,1-.18372,1H88V43H75.81628A2.97194,2.97194,0,0,1,76,44Z"/><path class="iconAccent" d="M13,9h7v2H13Zm53,5H76V12H66Zm8,1H73v4H71l2.5,3L76,19H74Zm6-3v2H90V12Zm2.5,3L80,18h2v4h1V18h2Z"/><path class="iconMain" d="M85,39a2,2,0,1,1-2-2A2,2,0,0,1,85,39ZM73,42a2,2,0,1,0,2,2A2,2,0,0,0,73,42ZM63,25V48a2.00229,2.00229,0,0,0,2,2h2V49H65a1.001,1.001,0,0,1-1-1V25a1.001,1.001,0,0,1,1-1h2V23H65A2.00229,2.00229,0,0,0,63,25Zm28-2H89v1h2a1.001,1.001,0,0,1,1,1V48a1.001,1.001,0,0,1-1,1H89v1h2a2.00229,2.00229,0,0,0,2-2V25A2.00229,2.00229,0,0,0,91,23ZM13,19H39V17H13Z"/><path class="grayBF" d="M13,33h2v2H13ZM10,15h4V13H10ZM30,43h4V41H30ZM22,31V29H20v2ZM20,21H13v2h7ZM13,31h5V29H13Zm4,6H13v2h4ZM22,9v2h4V9Zm6,32H23v2h5ZM34,9H28v2h6Zm1-4H29V7h6ZM23,33H21v2h2ZM37,15V13H33v2ZM26,29H24v2h2ZM27,5H23V7h4Zm0,28H25v2h2Zm4-20H16v2H31ZM17,35h2V33H17Zm13-6H28v2h2Zm-4-8H22v2h4ZM13,27h3V25H13ZM11,55H23V53H11ZM9,59h2V57H9ZM5,55H9V53H5Zm10-6H13v2h2Zm10,6h2V53H25ZM5,59H7V57H5ZM19,39H31V37H19Zm2,12H34V49H21ZM33,37v2h2V37Zm3,6h7V41H36ZM7,1H5V3H7ZM21,41H13v2h8ZM1,59H3V57H1ZM13,5H5V7h8ZM5,11h6V9H5ZM11,1H9V3h2ZM21,5H15V7h6ZM11,49H5v2h6ZM3,1H1V3H3ZM25,45H10v2H25Zm-6,6V49H17v2Z"/><path class="iconMain" d="M58.53418,34.87909,51.5387,31.04523l.0448,2.007a23.95344,23.95344,0,0,1-5.00055-.50989,23.79847,23.79847,0,0,1-6.043-2.08209,14.50147,14.50147,0,0,1-4.957-3.99244,11.45069,11.45069,0,0,1-2.28638-6.09075,11.96974,11.96974,0,0,0,1.44659,6.63366,15.98157,15.98157,0,0,0,4.74628,5.15143,26.27075,26.27075,0,0,0,6.2608,3.26233A26.84493,26.84493,0,0,0,51.669,36.87793l.04785,2.14343Z"/></svg>