<svg xmlns="http://www.w3.org/2000/svg" viewBox="0 0 100 60"><defs><style>.grayD1{fill:#d1d1d1;}.iconCommon{fill:#fff;}.grayBF{fill:#bfbfbf;}.gray89{fill:#898989;}.grayA6{fill:#a6a6a6;}.iconMain{fill:#d10;}</style></defs><path class="grayD1" d="M99,56H56V4H99Z"/><rect class="iconCommon" x="57" y="5" width="41" height="50"/><path class="grayBF" d="M11,3H1V1H11ZM7,37H1v2H7ZM9,5H5V7H9ZM21,5H19V7h2Zm6,4H25v2h2ZM9,9H5v2H9Zm2-2h6V5H11ZM23,9H11v2H23Zm4,4H25v2h2ZM9,13H5v2H9Zm14,0H11v2H23ZM11,41H1v2H11ZM4,47H15V45H4Zm6,4h4V49H10Zm12-6H18v2h4Zm2,2h4V45H24Zm6,0h4V45H30Zm-4,2H24v2h2Zm4,6h2V53H30Zm6-10v2h2V45ZM10,55h4V53H10Zm6-4h6V49H16Zm0,4H28V53H16ZM9,29H5v2H9Zm10,0v2h2V29Zm8,4H25v2h2ZM2,59H4V57H2Zm4,0H8V57H6Zm4,0h2V57H10ZM5,35H9V33H5Zm6-6v2h6V29Zm12,4H11v2H23ZM9,21H5v2H9Zm10,0v2h2V21Zm8,4H25v2h2ZM9,25H5v2H9Zm2-4v2h6V21Zm12,4H11v2H23Z"/><path class="gray89" d="M90,23H63V21H90Zm-3,2H63v2H87Zm-5,6H93V29H82Zm0,4H93V33H82Zm0,4H93V37H82Zm0,8H93V45H82ZM63,51H93V49H63Zm0,4H93V53H63ZM87,41H82v2h5ZM63,12v7H93V12Z"/><path class="grayA6" d="M75,32H67a1,1,0,0,0-1,1V43a1,1,0,0,0,1,1h8a1,1,0,0,0,1-1V33A1,1,0,0,0,75,32Z"/><rect class="iconCommon" x="67" y="33" width="8" height="10" rx="0.5"/><path class="iconMain" d="M65.5,37H67v1H65.5a.5.5,0,0,1,0-1ZM64,44V32a1.001,1.001,0,0,1,1-1h2V30H65a2.00229,2.00229,0,0,0-2,2V44a2.00229,2.00229,0,0,0,2,2h2V45H65A1.001,1.001,0,0,1,64,44Zm1-2.5a.5.5,0,0,0,.5.5H67V41H65.5A.5.5,0,0,0,65,41.5Zm0-2a.5.5,0,0,0,.5.5H67V39H65.5A.5.5,0,0,0,65,39.5Zm8.85321-2.42676-.82623.927.82611.92713-1.21332.26428.12335,1.2356-1.1369-.49933L71,41l-.62659-1.07227-1.137.49909.1236-1.23554-1.21326-.26452.82623-.927-.82605-.92719,1.21332-.26422-.12335-1.23566,1.13684.49939L70.99994,35l.62665,1.0722,1.137-.49914L72.64,36.80872Zm-2.5108-.35943.58624-.20844.33948-.45782-.61585.27032Zm.77594-.06934-.01746.63647.29761-.42211.06848-.68451Zm-.99829.399V37.831l.739-.2492.02161-.80927Zm-.55573-.83106.43573.55713.436-.55707L71,35.46637Zm-.83227-.16522.33935.45819.58649.20856-.30982-.39618Zm.38665.72534.02283.80927.7384.2492v-.78753Zm-.58526-.5982.0683.6842.29736.42212-.01746-.63617ZM69.165,37.86157l.67828-.25171-.40674-.57733-.846.18427Zm-.41059.73712.553-.18884.37714-.49011-.4856.18017Zm.72754.37836.51441-.16272-.61469-.18121-.57568.19653Zm.82068.72485-.01751-.73217-.68824.21777-.08624.86206Zm.507-1.64715-.74017-.24939-.49249.64007.77618.22876Zm.07031,1.66907-.3551-.5199.01233.54083.34277.58759ZM71,39.47931l.45679-.6665L71,38.19305l-.45679.61976Zm.47565-.27515-.35559.51966v.60827l.34179-.58722Zm.1712-.53.77618-.22876-.49249-.64007-.74017.24939Zm.8421,1.37568-.08606-.86213-.68805-.21795L71.697,39.702Zm.7052-1.21979-.57586-.197-.61487.18127.51446.163Zm-.39312-.7298-.48542-.1803.377.48987.55273.18909Zm.60858-.88293-.846-.18445-.40692.57709.67828.25195ZM77,30H75v1h2a1.001,1.001,0,0,1,1,1V44a1.001,1.001,0,0,1-1,1H75v1h2a2.00229,2.00229,0,0,0,2-2V32A2.00229,2.00229,0,0,0,77,30ZM65,35.5a.5.5,0,0,0,.5.5H67V35H65.5A.5.5,0,0,0,65,35.5Zm0-2a.5.5,0,0,0,.5.5H67v-.5a.5.5,0,0,1,.5-.5h-2A.5.5,0,0,0,65,33.5ZM5,19h6V17H5Zm37-2H38v2h4Zm-6,0H13v2H36ZM51.5835,33.05225a23.95344,23.95344,0,0,1-5.00055-.50989,23.79847,23.79847,0,0,1-6.043-2.08209,14.50147,14.50147,0,0,1-4.957-3.99244,11.45069,11.45069,0,0,1-2.28638-6.09075,11.96974,11.96974,0,0,0,1.44659,6.63366,15.98157,15.98157,0,0,0,4.74628,5.15143,26.27075,26.27075,0,0,0,6.2608,3.26233A26.84493,26.84493,0,0,0,51.669,36.87793l.04785,2.14343,6.81738-4.14227L51.5387,31.04523Z"/></svg>